<svg xmlns="http://www.w3.org/2000/svg" viewBox="0 0 100 100" role="img" aria-label="Moose"><title>Moose</title>
  <rect width="100" height="100" rx="22" fill="#1A2B5F"/>
  <g transform="translate(11.3 29.9) scale(0.30)">
    <g transform="translate(4,4)"><g transform="translate(0.000000,126.000000) scale(0.100000,-0.100000)"><path d="M535 1249 c-565 -77 -726 -842 -242 -1147 325 -205 693 -95 917 272
188 308 287 453 352 516 222 215 539 176 668 -83 l42 -82 -4 -105 c-13 -417
-498 -531 -759 -179 -69 92 -82 92 -143 -6 -63 -103 -55 -129 74 -253 385
-373 1025 -125 1057 409 29 481 -461 809 -900 601 -161 -76 -290 -227 -517
-607 -161 -270 -267 -350 -460 -349 -390 2 -534 522 -203 732 191 121 422 63
568 -142 44 -62 87 -74 110 -31 6 11 25 42 43 69 39 60 40 82 7 127 -143 193
-373 291 -610 258z" fill="#FFFFFF"/></g></g>
  </g>
</svg>
