<svg xmlns="http://www.w3.org/2000/svg" width="1200" height="630" viewBox="0 0 1200 630"><rect width="1200" height="630" fill="#1A2B5F"></rect><svg x="320" y="213.28205128205127" width="560" height="137.43589743589743" viewBox="0 0 8190.000000 2010.000000" overflow="visible"><title>moose</title><g transform="translate(0.000000,2010.000000) scale(0.100000,-0.100000)" fill="#FFFFFF" stroke="none">
<path d="M8508 16980 c-174 -9 -536 -52 -753 -90 -60 -11 -164 -29 -231 -39&#xA;-78 -13 -192 -43 -320 -85 -109 -35 -235 -74 -279 -86 -138 -38 -394 -139&#xA;-550 -217 -82 -42 -204 -100 -270 -129 -131 -59 -197 -98 -320 -185 -44 -31&#xA;-138 -94 -210 -139 -184 -116 -316 -212 -419 -305 -50 -44 -144 -128 -210&#xA;-186 -138 -122 -328 -313 -407 -410 -30 -36 -85 -102 -124 -146 -171 -196&#xA;-376 -494 -608 -882 -117 -196 -335 -706 -415 -971 -171 -565 -199 -688 -222&#xA;-1000 -5 -74 -18 -193 -27 -265 -23 -171 -28 -8252 -5 -8316 48 -135 67 -137&#xA;1422 -129 1002 6 970 2 1030 110 25 45 25 45 31 4040 4 2720 9 4014 16 4055 6&#xA;33 23 139 37 235 19 124 38 209 66 290 21 63 48 147 60 187 103 354 268 666&#xA;555 1048 129 171 451 482 640 618 772 554 1920 720 2905 421 192 -59 636 -264&#xA;754 -349 44 -31 116 -80 160 -110 93 -61 313 -262 501 -457 326 -338 612 -884&#xA;744 -1423 90 -370 84 -39 91 -4535 6 -4392 -1 -3998 77 -4071 65 -61 55 -60&#xA;1228 -57 1118 3 1077 1 1148 50 15 11 37 38 50 61 28 53 27 -168 30 4492 2&#xA;3620 2 3620 35 3820 42 258 61 331 131 517 277 730 637 1210 1221 1624 309&#xA;219 299 213 443 268 64 25 153 64 199 87 365 184 927 260 1578 214 393 -28&#xA;619 -81 907 -214 70 -33 180 -81 243 -107 214 -89 627 -381 822 -581 212 -217&#xA;278 -295 356 -419 42 -68 107 -167 143 -221 76 -111 173 -315 226 -472 19 -58&#xA;53 -146 73 -196 72 -169 107 -332 142 -656 33 -294 33 -294 34 -4149 1 -2120&#xA;5 -3879 8 -3909 14 -115 66 -181 159 -201 114 -23 2134 -9 2188 16 49 23 78&#xA;57 98 114 16 46 16 8284 0 8413 -5 45 -16 120 -24 167 -8 47 -22 148 -31 225&#xA;-23 209 -68 429 -104 520 -39 97 -119 345 -154 476 -36 135 -79 235 -197 459&#xA;-56 107 -126 245 -155 306 -82 176 -254 442 -486 752 -159 213 -649 700 -944&#xA;939 -209 169 -253 198 -674 451 -267 161 -726 359 -1090 470 -448 137 -603&#xA;170 -975 207 -88 9 -212 23 -275 33 -194 28 -1032 25 -1280 -6 -485 -60 -813&#xA;-135 -1200 -277 -124 -45 -263 -95 -310 -111 -117 -40 -519 -239 -626 -311&#xA;-49 -33 -138 -89 -199 -126 -60 -37 -141 -91 -180 -121 -38 -31 -122 -95 -185&#xA;-144 -317 -246 -650 -578 -890 -886 -260 -335 -278 -337 -489 -63 -118 154&#xA;-163 206 -375 430 -270 285 -541 528 -741 664 -430 293 -920 550 -1215 639&#xA;-85 25 -213 68 -283 95 -444 172 -1358 275 -2099 239z"></path>
<path d="M71680 16970 c-69 -4 -168 -15 -220 -23 -52 -9 -171 -26 -265 -37&#xA;-349 -42 -582 -91 -846 -175 -59 -19 -182 -54 -275 -79 -186 -49 -243 -69&#xA;-509 -179 -237 -98 -426 -185 -517 -236 -40 -23 -140 -75 -223 -117 -82 -42&#xA;-215 -119 -295 -171 -80 -52 -194 -125 -253 -164 -268 -172 -881 -698 -1065&#xA;-914 -42 -49 -126 -142 -187 -206 -211 -222 -582 -735 -755 -1044 -267 -478&#xA;-329 -608 -527 -1115 -115 -292 -134 -351 -190 -590 -30 -129 -70 -289 -88&#xA;-355 -19 -66 -41 -169 -50 -229 -8 -60 -27 -152 -41 -205 -26 -99 -55 -352&#xA;-75 -660 -16 -232 -6 -1024 14 -1201 9 -74 21 -190 27 -256 6 -67 20 -160 31&#xA;-205 11 -46 31 -154 44 -239 14 -85 45 -227 70 -315 25 -88 71 -261 101 -384&#xA;100 -405 477 -1298 648 -1533 29 -40 81 -125 116 -188 109 -201 465 -678 689&#xA;-920 48 -52 117 -131 153 -175 36 -44 95 -103 130 -130 34 -28 135 -117 222&#xA;-198 235 -219 914 -715 1120 -819 33 -17 108 -61 166 -98 109 -70 192 -110&#xA;420 -203 74 -30 185 -80 245 -110 240 -122 1061 -363 1400 -412 371 -54 464&#xA;-66 590 -75 77 -6 199 -20 270 -32 201 -33 950 -34 1135 -1 69 12 184 25 255&#xA;28 247 11 631 60 785 100 30 8 120 25 200 39 163 28 461 98 515 120 19 8 117&#xA;40 216 71 351 109 1040 421 1272 577 655 439 949 675 1335 1070 223 229 229&#xA;236 475 557 175 229 168 338 -30 486 -44 33 -197 146 -338 250 -142 105 -302&#xA;224 -357 265 -55 41 -138 103 -184 137 -46 34 -139 106 -207 159 -227 181&#xA;-447 314 -517 314 -53 -1 -58 -6 -331 -284 -496 -506 -960 -866 -1314 -1019&#xA;-542 -233 -654 -273 -980 -347 -121 -27 -269 -63 -330 -79 -83 -22 -152 -32&#xA;-280 -41 -93 -6 -215 -18 -270 -26 -233 -34 -263 -36 -454 -31 -126 3 -237 13&#xA;-311 25 -63 11 -162 23 -220 27 -172 11 -268 24 -390 55 -63 16 -164 39 -224&#xA;51 -406 77 -1257 439 -1511 641 -29 24 -115 93 -191 153 -407 325 -575 502&#xA;-831 879 -319 469 -502 849 -628 1306 -125 456 -97 511 275 530 113 5 243 14&#xA;290 20 135 16 733 13 881 -5 148 -17 9177 -24 9235 -7 121 36 156 95 169 282&#xA;3 52 18 167 33 255 41 245 41 977 0 1215 -15 85 -32 227 -38 315 -6 88 -21&#xA;234 -34 325 -13 91 -27 192 -30 225 -14 122 -58 343 -86 425 -16 47 -41 128&#xA;-55 180 -46 166 -192 614 -223 686 -356 825 -593 1212 -1166 1903 -168 204&#xA;-421 446 -696 668 -69 56 -161 131 -204 168 -107 91 -526 368 -656 434 -58 30&#xA;-145 80 -195 111 -120 76 -185 108 -356 176 -79 31 -196 83 -259 115 -114 59&#xA;-318 132 -515 184 -55 15 -154 44 -220 65 -319 102 -580 156 -919 191 -109 11&#xA;-244 27 -300 35 -116 17 -1076 28 -1296 14z m835 -2360 c143 -6 228 -16 345&#xA;-39 85 -17 199 -37 252 -46 314 -49 937 -252 1183 -384 73 -39 534 -330 595&#xA;-376 95 -70 515 -483 603 -592 352 -438 595 -888 732 -1358 68 -230 72 -248&#xA;90 -369 35 -239 4 -274 -267 -306 -227 -27 -5384 -31 -5649 -4 -140 14 -168&#xA;14 -309 -1 -291 -30 -1900 -18 -1965 15 -94 47 -117 116 -90 271 29 173 66&#xA;303 115 409 75 162 157 343 214 475 75 171 318 553 466 730 41 49 109 135 150&#xA;189 188 250 809 718 1230 928 335 167 915 346 1275 393 66 9 172 26 235 37&#xA;189 34 464 44 795 28z"></path>
<path d="M31979 16949 c-42 -4 -179 -15 -305 -23 -126 -9 -283 -25 -349 -35&#xA;-66 -11 -160 -24 -210 -31 -49 -6 -155 -26 -235 -45 -80 -18 -171 -39 -203&#xA;-45 -31 -6 -114 -29 -183 -51 -70 -21 -221 -64 -338 -94 -191 -50 -225 -63&#xA;-356 -129 -80 -40 -201 -93 -269 -117 -69 -24 -170 -66 -225 -94 -500 -255&#xA;-549 -283 -786 -439 -135 -89 -270 -183 -300 -207 -30 -25 -101 -79 -157 -122&#xA;-56 -42 -142 -114 -190 -160 -49 -45 -138 -123 -199 -172 -176 -143 -260 -223&#xA;-352 -335 -48 -58 -128 -148 -178 -200 -50 -52 -124 -140 -164 -195 -41 -55&#xA;-100 -132 -132 -171 -106 -129 -406 -574 -488 -724 -29 -52 -76 -133 -106&#xA;-180 -29 -47 -80 -148 -112 -225 -33 -77 -82 -186 -110 -242 -71 -140 -112&#xA;-243 -186 -461 -35 -103 -73 -209 -85 -236 -42 -96 -142 -433 -162 -546 -11&#xA;-63 -31 -158 -44 -210 -13 -52 -31 -151 -40 -220 -8 -69 -24 -156 -35 -195&#xA;-56 -203 -55 -193 -55 -980 0 -777 0 -779 50 -952 14 -46 29 -134 36 -196 24&#xA;-242 163 -811 261 -1062 38 -99 94 -245 125 -325 122 -317 146 -373 259 -595&#xA;64 -126 146 -275 183 -330 38 -55 90 -138 116 -185 132 -232 298 -467 505&#xA;-715 69 -82 150 -181 180 -220 78 -100 439 -464 545 -550 50 -40 126 -106 170&#xA;-146 161 -150 307 -264 462 -360 53 -33 134 -87 178 -120 160 -116 667 -399&#xA;910 -507 61 -28 161 -73 224 -101 62 -29 211 -85 330 -125 119 -41 266 -93&#xA;326 -116 61 -23 153 -53 205 -65 168 -39 342 -75 446 -90 56 -8 153 -28 217&#xA;-45 85 -21 168 -34 304 -45 104 -8 231 -22 283 -30 281 -44 750 -42 1105 5 83&#xA;11 193 20 245 20 127 0 241 15 380 50 63 16 158 36 210 45 289 49 680 154 876&#xA;236 55 23 189 70 299 105 110 35 225 76 255 92 30 16 168 85 305 154 138 69&#xA;298 157 357 196 59 39 164 107 235 150 499 311 1025 753 1450 1218 173 190&#xA;211 237 414 507 154 204 469 673 606 902 33 55 111 179 173 275 62 96 156 252&#xA;208 345 52 94 156 266 231 383 175 274 235 370 285 460 23 40 97 161 166 267&#xA;69 107 151 241 184 297 32 57 150 240 261 408 112 168 238 365 280 439 42 73&#xA;108 176 145 227 38 52 92 140 121 196 73 143 348 584 459 737 26 36 85 127&#xA;130 201 45 74 113 178 150 230 37 52 106 154 152 225 103 158 287 412 378 520&#xA;36 44 99 125 139 180 40 55 117 145 170 200 54 55 121 127 150 160 101 113&#xA;621 614 708 681 49 37 140 109 205 160 190 152 466 322 787 485 86 43 194 99&#xA;241 124 49 26 159 69 260 101 96 31 227 73 290 95 63 21 158 50 210 64 52 13&#xA;132 36 178 50 60 18 126 27 240 35 86 6 211 18 277 27 173 22 534 23 690 0 66&#xA;-9 192 -24 280 -32 88 -8 185 -21 215 -29 593 -152 684 -184 1080 -382 329&#xA;-164 394 -202 645 -383 77 -55 181 -128 230 -162 86 -60 298 -268 573 -562&#xA;106 -113 304 -403 405 -592 35 -66 87 -157 115 -201 66 -106 151 -277 191&#xA;-384 206 -559 247 -729 281 -1165 35 -447 16 -1010 -44 -1268 -8 -34 -26 -130&#xA;-40 -214 -29 -178 -96 -378 -288 -863 -47 -120 -272 -504 -422 -720 -205 -295&#xA;-775 -841 -1091 -1045 -271 -175 -609 -355 -835 -445 -52 -20 -133 -53 -180&#xA;-73 -98 -40 -255 -80 -525 -132 -104 -20 -234 -47 -288 -61 -268 -68 -1017&#xA;-65 -1318 5 -74 17 -217 47 -319 66 -461 89 -766 205 -1203 459 -635 368&#xA;-1028 708 -1476 1272 -313 393 -377 477 -520 679 -78 110 -188 261 -245 335&#xA;-57 74 -136 182 -176 240 -211 302 -271 293 -490 -75 -29 -49 -83 -135 -120&#xA;-190 -36 -55 -104 -163 -150 -240 -46 -77 -139 -224 -206 -327 -67 -102 -191&#xA;-300 -274 -440 -84 -139 -183 -296 -220 -348 -189 -267 -184 -286 206 -802 57&#xA;-76 130 -177 161 -225 95 -147 280 -379 429 -538 193 -205 663 -666 772 -756&#xA;360 -298 665 -524 858 -635 55 -32 131 -79 171 -105 88 -60 694 -359 818 -404&#xA;50 -18 205 -79 345 -136 303 -121 568 -191 960 -254 58 -9 155 -30 216 -46&#xA;117 -31 281 -48 454 -49 52 0 151 -9 220 -21 244 -41 777 -40 1020 0 63 11&#xA;178 23 255 26 157 8 199 15 505 80 118 25 276 57 350 70 350 62 1164 364 1520&#xA;563 517 289 940 573 1225 822 83 72 213 184 290 249 158 133 327 305 422 431&#xA;35 46 106 130 157 186 98 106 248 299 312 400 20 32 128 196 239 364 261 393&#xA;281 427 393 665 170 360 271 621 338 875 20 74 53 178 74 230 73 186 130 434&#xA;156 680 9 80 26 203 40 274 70 375 68 1523 -5 1907 -16 85 -32 181 -35 214&#xA;-44 394 -282 1208 -471 1605 -51 107 -116 250 -145 317 -29 67 -78 165 -111&#xA;218 -32 52 -86 146 -119 208 -236 434 -819 1168 -1146 1441 -32 28 -115 105&#xA;-184 171 -195 190 -495 427 -719 570 -51 33 -152 99 -225 146 -379 249 -691&#xA;416 -927 497 -64 22 -174 66 -245 97 -147 65 -308 120 -504 171 -74 20 -175&#xA;48 -225 64 -152 48 -476 120 -606 135 -68 8 -171 22 -229 30 -218 32 -1335 49&#xA;-1654 24 -157 -11 -481 -60 -596 -89 -41 -10 -139 -30 -217 -45 -78 -14 -192&#xA;-41 -253 -60 -61 -19 -148 -44 -193 -56 -134 -33 -301 -87 -389 -125 -46 -20&#xA;-135 -55 -198 -79 -498 -187 -822 -350 -1202 -605 -413 -278 -573 -390 -662&#xA;-467 -44 -37 -133 -111 -196 -163 -64 -52 -161 -134 -216 -182 -142 -124 -716&#xA;-716 -798 -823 -38 -49 -111 -137 -162 -195 -151 -171 -479 -615 -718 -973&#xA;-56 -84 -127 -188 -157 -232 -31 -44 -76 -114 -99 -155 -24 -41 -123 -195&#xA;-219 -342 -97 -147 -212 -326 -256 -398 -44 -72 -133 -208 -197 -303 -65 -95&#xA;-166 -248 -225 -342 -58 -93 -127 -201 -153 -240 -25 -38 -75 -119 -110 -180&#xA;-35 -60 -100 -165 -144 -232 -45 -66 -117 -179 -160 -250 -209 -337 -277 -444&#xA;-333 -523 -33 -47 -95 -146 -138 -220 -92 -159 -113 -195 -220 -360 -45 -69&#xA;-107 -172 -139 -229 -32 -58 -84 -143 -115 -190 -32 -47 -84 -131 -116 -186&#xA;-93 -159 -292 -474 -348 -550 -28 -38 -91 -128 -140 -200 -49 -71 -121 -170&#xA;-160 -220 -39 -49 -124 -160 -189 -245 -159 -208 -569 -631 -717 -740 -57 -41&#xA;-146 -110 -199 -153 -373 -306 -1192 -678 -1687 -766 -611 -109 -588 -106&#xA;-995 -106 -414 0 -340 -7 -875 87 -391 68 -845 248 -1340 530 -743 423 -1451&#xA;1223 -1758 1988 -30 74 -71 172 -90 216 -55 126 -103 285 -136 449 -16 83 -41&#xA;204 -55 270 -66 320 -81 871 -37 1340 74 785 377 1532 894 2204 118 153 495&#xA;554 611 650 609 503 1627 938 2306 986 107 8 255 21 329 30 109 13 161 14 275&#xA;6 226 -17 504 -40 594 -51 84 -10 398 -93 495 -131 29 -11 119 -39 201 -60 84&#xA;-23 194 -61 255 -88 58 -27 160 -73 226 -103 227 -104 370 -181 500 -268 72&#xA;-48 168 -112 215 -142 333 -213 1047 -970 1432 -1518 83 -118 187 -264 231&#xA;-325 45 -60 124 -175 178 -255 230 -345 294 -343 496 9 26 46 89 145 138 220&#xA;50 75 113 177 140 226 26 50 101 169 165 266 64 97 143 227 175 290 32 63 77&#xA;141 100 174 198 282 356 537 394 633 43 110 21 183 -114 374 -51 73 -128 188&#xA;-171 256 -42 67 -108 161 -146 208 -38 47 -101 129 -141 182 -83 111 -352 400&#xA;-606 650 -459 452 -1057 894 -1471 1088 -80 37 -199 98 -266 136 -121 68 -232&#xA;119 -549 250 -286 119 -313 128 -468 164 -82 19 -218 57 -301 84 -370 121&#xA;-731 177 -1351 210 -104 5 -235 14 -290 20 -117 11 -367 11 -476 -1z"></path>
<path d="M58715 16913 c-638 -39 -916 -80 -1215 -178 -58 -19 -181 -53 -273&#xA;-75 -196 -48 -286 -79 -532 -187 -371 -164 -443 -199 -545 -268 -58 -40 -151&#xA;-95 -207 -125 -56 -29 -137 -80 -180 -114 -43 -34 -127 -97 -188 -140 -192&#xA;-138 -587 -563 -793 -854 -40 -57 -260 -492 -303 -600 -56 -139 -141 -393&#xA;-175 -521 -19 -69 -40 -150 -48 -179 -8 -29 -22 -114 -30 -190 -9 -75 -21&#xA;-177 -27 -227 -20 -157 -16 -584 9 -785 11 -96 26 -222 32 -279 14 -129 51&#xA;-275 97 -389 19 -48 54 -143 78 -212 64 -185 115 -295 201 -437 122 -200 133&#xA;-216 366 -529 48 -64 228 -240 333 -324 44 -35 112 -92 151 -125 39 -34 106&#xA;-83 150 -110 43 -26 138 -85 209 -130 184 -116 383 -226 500 -275 55 -23 159&#xA;-69 232 -101 72 -32 212 -85 310 -118 98 -33 264 -90 368 -126 105 -37 334&#xA;-106 510 -155 176 -49 336 -95 355 -103 37 -16 504 -135 835 -213 110 -26 242&#xA;-62 294 -81 52 -19 232 -68 400 -109 350 -87 429 -110 555 -166 50 -22 140&#xA;-60 199 -84 581 -236 962 -545 1110 -898 172 -410 175 -656 14 -1078 -88 -229&#xA;-106 -258 -282 -433 -251 -251 -477 -395 -761 -486 -71 -23 -166 -57 -212 -76&#xA;-335 -138 -1116 -189 -1861 -123 -473 43 -1279 338 -1676 615 -146 102 -193&#xA;137 -386 298 -178 148 -201 170 -277 265 -42 53 -108 133 -148 179 -40 46 -94&#xA;111 -120 146 -176 233 -263 235 -505 12 -63 -58 -182 -156 -266 -219 -83 -64&#xA;-187 -147 -230 -187 -43 -39 -112 -99 -153 -132 -41 -34 -149 -125 -240 -202&#xA;-91 -77 -212 -179 -270 -226 -342 -280 -342 -309 -9 -756 225 -300 677 -748&#xA;959 -950 74 -52 161 -118 193 -145 146 -121 429 -287 706 -413 113 -52 241&#xA;-112 283 -133 42 -21 150 -62 240 -91 90 -29 201 -66 248 -83 326 -116 485&#xA;-158 730 -193 63 -9 160 -25 215 -35 151 -29 216 -38 375 -50 80 -6 210 -21&#xA;290 -33 218 -33 1090 -33 1305 0 77 12 205 24 285 27 80 4 188 13 240 21 52 8&#xA;181 28 285 44 330 51 609 124 860 226 72 29 177 67 235 85 58 17 150 53 205&#xA;80 55 27 170 82 257 123 436 208 773 454 1149 842 294 304 440 517 671 980&#xA;331 663 428 1915 203 2615 -18 58 -45 153 -59 211 -128 522 -544 1112 -1092&#xA;1546 -281 223 -545 387 -794 493 -80 34 -205 93 -278 131 -100 52 -195 91&#xA;-380 153 -136 46 -314 111 -397 144 -83 33 -282 99 -445 146 -162 46 -315 92&#xA;-340 101 -25 9 -110 32 -190 51 -563 135 -894 219 -964 245 -44 16 -207 61&#xA;-360 100 -271 68 -459 128 -636 202 -47 20 -160 60 -251 90 -195 65 -267 99&#xA;-425 206 -524 351 -690 653 -671 1220 8 247 21 292 202 686 97 212 557 540&#xA;930 664 153 50 711 171 889 192 154 18 573 6 711 -21 61 -11 202 -34 314 -50&#xA;427 -62 540 -99 926 -297 291 -149 529 -294 636 -389 151 -132 415 -394 525&#xA;-520 211 -242 225 -242 511 8 402 351 503 438 584 505 49 40 164 140 256 224&#xA;92 83 215 190 273 237 334 272 336 331 25 677 -45 50 -127 146 -182 215 -175&#xA;218 -487 499 -774 699 -462 323 -610 405 -1049 584 -325 132 -366 147 -554&#xA;197 -99 27 -206 58 -236 68 -371 129 -1379 216 -2035 175z"></path>
</g></svg><rect x="572" y="392" width="56" height="3.5" rx="1.75" fill="#EB4E8D"></rect><text x="600" y="452" text-anchor="middle" font-family="-apple-system, BlinkMacSystemFont, &#39;SF Pro Display&#39;, &#39;Helvetica Neue&#39;, Helvetica, Arial, sans-serif" font-size="32" font-weight="600" letter-spacing="4.2" fill="#FFFFFF">MORE WAYS TO MOVE</text></svg>