<?xml version="1.0" encoding="UTF-8"?>
<svg xmlns="http://www.w3.org/2000/svg" viewBox="0 0 698 136" role="img" aria-label="Moose"><title>Moose</title><g transform="translate(4,4)"><g transform="translate(0.000000,128.000000) scale(0.100000,-0.100000)"><path d="M430 1274 c-219 -43 -385 -210 -419 -425 -6 -36 -11 -224 -11 -431
l0 -368 115 0 115 0 0 372 c0 447 2 460 89 550 150 152 413 98 484 -99 12 -34
17 -79 17 -158 0 -60 3 -235 7 -388 l6 -278 111 3 111 3 5 400 c6 454 3 437
89 522 122 121 312 111 429 -22 71 -80 72 -90 72 -522 l0 -383 113 0 112 0 -2
412 c-2 390 -3 416 -23 473 -120 347 -579 461 -839 209 -62 -61 -81 -65 -110
-28 -91 115 -310 189 -471 158z M2565 1269 c-565 -77 -726 -842 -242 -1147
325 -205 693 -95 917 272 188 308 287 453 352 516 222 215 539 176 668 -83
l42 -82 -4 -105 c-13 -417 -498 -531 -759 -179 -69 92 -82 92 -143 -6 -63
-103 -55 -129 74 -253 385 -373 1025 -125 1057 409 29 481 -461 809 -900 601
-161 -76 -290 -227 -517 -607 -161 -270 -267 -350 -460 -349 -390 2 -534 522
-203 732 191 121 422 63 568 -142 44 -62 87 -74 110 -31 6 11 25 42 43 69 39
60 40 82 7 127 -143 193 -373 291 -610 258z M6175 1270 c-416 -75 -634 -532
-443 -926 180 -371 730 -458 1026 -163 71 71 70 91 -8 147 -74 52 -90 52 -148
1 -203 -181 -547 -127 -660 104 -41 83 -42 117 -4 118 15 0 236 1 492 2 l465
2 0 125 c-2 391 -330 661 -720 590z m254 -228 c121 -41 227 -164 230 -264 l1
-28 -375 0 c-430 0 -399 -9 -349 96 84 177 298 263 493 196z M4911 1244 c-297
-101 -356 -466 -99 -612 50 -29 86 -41 321 -107 152 -43 208 -97 192 -182 -28
-150 -332 -172 -487 -34 -60 53 -82 53 -152 -5 -71 -59 -72 -78 -8 -143 312
-312 929 -135 877 253 -23 176 -131 261 -426 335 -193 48 -239 81 -239 168 0
160 277 201 434 63 45 -40 64 -38 130 16 71 59 73 81 12 140 -134 128 -366
173 -555 108z" fill="#FFFFFF"/></g></g></svg>
